<svg version="1.1" id="Layer_1" xmlns="http://www.w3.org/2000/svg" xmlns:xlink="http://www.w3.org/1999/xlink" x="0px" y="0px"
	 width="100%" viewBox="0 0 512 512" enable-background="new 0 0 512 512" xml:space="preserve">
<path fill="#FFFFFF" opacity="1.000000" stroke="none" 
	d="
M0.999994,498.000000 
	C1.000000,332.392212 1.000000,166.784409 1.000000,1.088308 
	C171.547104,1.088308 342.094269,1.088308 513.000000,1.088308 
	C513.000000,68.022896 513.000000,135.046432 512.663208,202.370926 
	C509.577362,197.554413 507.369629,192.040176 503.968628,187.400665 
	C496.496582,177.207596 486.935486,169.327225 475.358398,163.958649 
	C461.238159,157.410736 446.294556,156.418427 431.173950,156.646576 
	C445.025604,147.433762 457.145477,136.692169 466.765106,123.436729 
	C475.566376,111.308975 479.818970,97.649918 475.885132,82.761818 
	C470.897125,63.884167 455.928528,48.877235 433.963226,48.855358 
	C424.073242,48.845509 414.615295,50.545666 405.762909,54.289852 
	C395.829010,58.491451 385.485382,62.504406 378.667450,71.798683 
	C375.609772,75.966949 372.257263,79.918961 369.022766,83.538864 
	C368.987610,76.239716 369.574188,69.305710 368.844543,62.513088 
	C365.563782,31.970749 335.104797,4.650163 308.564087,2.694985 
	C292.981567,1.547063 280.847076,6.804404 269.593018,16.802149 
	C266.422455,15.914465 263.662018,14.763615 260.807098,14.436128 
	C252.416306,13.473619 243.843765,12.872089 236.267090,17.443951 
	C226.818588,23.145294 221.701859,31.358923 221.868835,42.967041 
	C222.047348,55.376278 226.734299,64.599152 237.348358,71.220840 
	C243.433838,75.017334 249.195007,79.470810 254.589371,84.211983 
	C270.008026,97.763649 280.714813,114.829178 289.502319,132.949310 
	C279.242157,130.464645 269.445374,130.054291 259.495605,132.807800 
	C248.620544,135.817383 241.215515,143.783401 233.700851,151.126160 
	C224.175339,160.433746 215.815216,170.934021 206.639297,181.057373 
	C202.865265,185.424408 199.404449,189.654037 195.641937,194.052048 
	C191.270279,199.335342 187.086060,204.364105 183.152390,209.581757 
	C172.457108,223.768066 161.770218,237.962799 151.275879,252.297607 
	C145.627594,260.012939 140.381546,268.022766 134.639511,276.042175 
	C130.862259,281.088043 127.399529,285.991425 123.632782,291.064392 
	C117.196037,300.267822 110.920059,309.208252 104.958763,318.353790 
	C90.086693,341.169739 74.956436,363.832123 60.689667,387.023560 
	C47.703201,408.133789 35.272842,429.618042 23.441664,451.396088 
	C15.220801,466.528534 8.429793,482.437775 0.999994,498.000000 
z"/>
<path fill="#FFFFFF" opacity="1.000000" stroke="none" 
	d="
M513.000000,219.000000 
	C513.000000,316.940033 513.000000,414.880035 513.000000,512.910034 
	C342.333374,512.910034 171.666687,512.910034 1.000000,512.910034 
	C1.000000,511.327942 1.000000,509.662292 1.333546,507.627930 
	C4.397823,510.942810 7.594165,513.217773 12.463288,511.218567 
	C19.534969,508.315063 26.950174,506.090393 33.690014,502.565094 
	C57.137272,490.300873 80.637955,478.091034 103.579712,464.922180 
	C124.460846,452.936096 144.640884,439.728668 165.440643,426.911316 
	C168.856628,424.548553 171.961960,422.334076 175.424286,420.066101 
	C178.126282,418.574768 180.537231,417.233490 182.806091,415.684143 
	C206.041199,399.817719 229.310715,384.000549 252.439468,367.980225 
	C260.168976,362.626373 267.522278,356.729340 275.400208,351.034454 
	C280.520752,347.360291 285.288605,343.732300 290.371613,339.958191 
	C298.053253,334.118683 305.450958,328.465027 312.780365,322.724213 
	C334.033600,306.077576 355.111176,289.238861 372.847076,268.672516 
	C382.330139,257.676117 384.480499,244.939346 382.526672,231.052399 
	C386.782013,232.782669 390.753601,234.352142 394.540283,236.284088 
	C411.951477,245.167191 428.433044,255.293488 440.623718,271.119934 
	C442.725403,273.848450 444.933289,276.617584 447.569611,278.787964 
	C454.371979,284.388062 462.131134,287.906067 470.919159,289.587799 
	C493.439026,293.897308 512.336548,273.896790 507.015594,253.739258 
	C505.688782,248.712845 503.602600,243.886902 502.022003,238.658997 
	C505.785675,231.899460 509.392822,225.449722 513.000000,219.000000 
z"/>
<path fill="#ED8F20" opacity="1.000000" stroke="none" 
	d="
M382.157806,231.058533 
	C384.480499,244.939346 382.330139,257.676117 372.847076,268.672516 
	C355.111176,289.238861 334.033600,306.077576 312.780365,322.724213 
	C305.450958,328.465027 298.053253,334.118683 290.230774,339.637329 
	C288.010620,335.777863 285.337952,333.506958 281.104980,332.804565 
	C268.149292,330.654785 256.015778,326.321320 245.790421,317.804260 
	C242.636795,315.177460 240.227448,311.677429 237.245392,308.819244 
	C233.527283,305.255585 228.597092,305.399384 224.709106,308.878143 
	C221.681534,311.587067 221.012543,317.360474 223.510452,320.815399 
	C230.792938,330.887939 240.306580,338.284851 251.734131,342.968628 
	C259.336426,346.084564 267.265015,348.404419 275.047546,351.080597 
	C267.522278,356.729340 260.168976,362.626373 252.439468,367.980225 
	C229.310715,384.000549 206.041199,399.817719 182.806091,415.684143 
	C180.537231,417.233490 178.126282,418.574768 175.409012,419.646240 
	C174.889145,413.062469 172.811371,410.324463 166.600571,408.986084 
	C156.061768,406.715118 146.494247,403.052490 139.452240,394.150604 
	C136.078857,389.886292 130.833908,390.023010 127.119011,393.398315 
	C123.250854,396.912903 122.732773,402.137085 125.955215,406.393311 
	C135.785950,419.377808 149.481155,425.080780 165.129974,427.059601 
	C144.640884,439.728668 124.460846,452.936096 103.579712,464.922180 
	C80.637955,478.091034 57.137272,490.300873 33.690014,502.565094 
	C26.950174,506.090393 19.534969,508.315063 12.463288,511.218567 
	C7.594165,513.217773 4.397823,510.942810 1.333546,507.129578 
	C1.000000,504.299988 1.000000,501.599976 0.999994,498.449982 
	C8.429793,482.437775 15.220801,466.528534 23.441664,451.396088 
	C35.272842,429.618042 47.703201,408.133789 60.689667,387.023560 
	C74.956436,363.832123 90.086693,341.169739 104.958763,318.353790 
	C110.920059,309.208252 117.196037,300.267822 123.787018,291.419434 
	C124.497871,292.389099 124.806931,293.160156 124.994644,293.959686 
	C127.803688,305.923767 133.366531,316.351776 142.924500,324.202087 
	C145.236816,326.101318 148.928787,327.645508 151.704193,327.269623 
	C154.285858,326.920013 157.610138,324.239594 158.590576,321.781006 
	C159.934830,318.410095 159.666519,314.362976 156.018387,311.441315 
	C147.984482,305.007294 143.895248,296.163239 142.159332,286.301605 
	C141.310379,281.478729 139.338013,277.998840 134.954010,275.899719 
	C140.381546,268.022766 145.627594,260.012939 151.275879,252.297607 
	C161.770218,237.962799 172.457108,223.768066 183.152390,209.581757 
	C187.086060,204.364105 191.270279,199.335342 195.660217,194.474213 
	C196.300201,196.349075 196.614487,197.971313 196.941025,199.591080 
	C200.734970,218.411041 209.341248,234.440292 224.309479,246.780014 
	C227.952209,249.783051 232.444794,250.330246 235.840042,247.724426 
	C238.132126,245.965286 239.594925,241.926743 239.665604,238.867096 
	C239.718216,236.589005 237.375031,233.747635 235.361450,232.013245 
	C223.451416,221.754532 217.059982,208.482254 214.443573,193.384171 
	C213.497421,187.924423 211.959351,183.579956 206.952545,180.919968 
	C215.815216,170.934021 224.175339,160.433746 233.700851,151.126160 
	C241.215515,143.783401 248.620544,135.817383 259.495605,132.807800 
	C269.445374,130.054291 279.242157,130.464645 289.727234,133.228714 
	C292.224609,135.153442 294.946960,136.439148 295.825531,138.507889 
	C304.666138,159.324570 311.867889,180.688950 316.247131,203.239349 
	C316.860229,203.675888 317.417480,203.819946 317.989807,204.248413 
	C318.011078,204.722595 318.017273,204.912354 318.255371,205.382416 
	C320.827759,206.425064 323.165283,207.196533 325.509125,207.948334 
	C342.065247,213.258743 358.597748,218.645172 375.198303,223.813019 
	C379.047729,225.011383 381.581421,226.964172 382.157806,231.058533 
M306.980286,217.494476 
	C303.889618,214.380219 300.641174,211.186844 295.805817,212.284454 
	C288.765411,213.882599 286.500519,222.645264 291.708801,228.131210 
	C297.318390,234.039886 302.872955,240.069443 309.029816,245.375275 
	C320.762238,255.486023 333.612091,263.995728 348.210052,269.511871 
	C353.494843,271.508850 358.713074,269.411957 360.466614,265.001160 
	C362.496399,259.895447 360.286072,254.654037 354.797272,252.474533 
	C336.057953,245.033478 320.513153,233.264587 306.980286,217.494476 
M44.103474,424.795349 
	C45.117264,426.085052 45.888615,427.739105 47.186092,428.602539 
	C53.363045,432.713043 59.631012,436.694061 65.969048,440.552887 
	C70.862656,443.532257 76.801422,442.253021 79.446999,437.894867 
	C81.834702,433.961487 80.324501,428.375580 75.723282,425.474731 
	C69.986107,421.857697 64.160103,418.355865 58.195641,415.131317 
	C49.931225,410.663269 43.985519,414.478729 44.103474,424.795349 
z"/>
<path fill="#88C057" opacity="1.000000" stroke="none" 
	d="
M513.000000,218.533142 
	C509.392822,225.449722 505.785675,231.899460 501.728516,238.512466 
	C498.568787,235.544907 495.832733,232.436478 493.154175,229.279205 
	C483.526855,217.931412 472.789276,207.833282 459.785400,200.436783 
	C429.934967,183.458069 398.103790,181.579163 365.334290,188.885040 
	C355.025299,191.183395 345.012207,194.809113 334.959595,197.499023 
	C348.159363,190.456879 361.327271,183.864441 374.351624,176.999649 
	C392.295807,167.541733 413.478546,167.345169 431.081146,156.978745 
	C446.294556,156.418427 461.238159,157.410736 475.358398,163.958649 
	C486.935486,169.327225 496.496582,177.207596 503.968628,187.400665 
	C507.369629,192.040176 509.577362,197.554413 512.663208,202.835938 
	C513.000000,208.022095 513.000000,213.044189 513.000000,218.533142 
z"/>
<path fill="#659C35" opacity="1.000000" stroke="none" 
	d="
M431.173950,156.646576 
	C413.478546,167.345169 392.295807,167.541733 374.351624,176.999649 
	C361.327271,183.864441 348.159363,190.456879 334.609985,197.572876 
	C331.439240,198.956802 328.713989,199.938614 326.137512,200.669220 
	C326.574585,200.084305 326.862915,199.750580 327.151245,199.416840 
	C324.775818,199.295212 322.400391,199.173584 320.008911,198.680237 
	C321.974457,194.851547 323.956085,191.394592 325.980042,187.704712 
	C326.022369,187.471802 326.060059,186.999863 326.030029,186.998413 
	C325.999969,186.996964 326.015076,187.055176 326.286713,186.846069 
	C326.719849,185.761169 326.881378,184.885361 327.018951,184.012680 
	C326.995026,184.015793 327.034576,184.043564 327.384766,184.031982 
	C328.115692,183.713593 328.624115,183.482925 328.858948,183.089096 
	C341.552246,161.799942 351.969666,139.509705 359.107758,115.701569 
	C362.055237,105.870728 361.602509,94.906898 368.638367,86.380539 
	C369.086975,85.836845 368.919434,84.784706 369.038513,83.969101 
	C372.257263,79.918961 375.609772,75.966949 378.667450,71.798683 
	C385.485382,62.504406 395.829010,58.491451 405.762909,54.289852 
	C414.615295,50.545666 424.073242,48.845509 433.963226,48.855358 
	C455.928528,48.877235 470.897125,63.884167 475.885132,82.761818 
	C479.818970,97.649918 475.566376,111.308975 466.765106,123.436729 
	C457.145477,136.692169 445.025604,147.433762 431.173950,156.646576 
z"/>
<path fill="#88C057" opacity="1.000000" stroke="none" 
	d="
M325.937744,187.937637 
	C323.956085,191.394592 321.974457,194.851547 319.998962,198.658295 
	C320.005127,199.008087 320.051147,198.999863 319.807343,199.094513 
	C319.388184,199.481842 319.212830,199.774521 319.082581,200.057022 
	C319.127655,200.046844 319.186798,200.117935 318.883301,200.182526 
	C317.783630,201.147034 316.987457,202.046951 316.191315,202.946884 
	C311.867889,180.688950 304.666138,159.324570 295.825531,138.507889 
	C294.946960,136.439148 292.224609,135.153442 290.133087,133.224915 
	C280.714813,114.829178 270.008026,97.763649 254.589371,84.211983 
	C249.195007,79.470810 243.433838,75.017334 237.348358,71.220840 
	C226.734299,64.599152 222.047348,55.376278 221.868835,42.967041 
	C221.701859,31.358923 226.818588,23.145294 236.267090,17.443951 
	C243.843765,12.872089 252.416306,13.473619 260.807098,14.436128 
	C263.662018,14.763615 266.422455,15.914465 269.789368,17.092653 
	C274.061432,19.326876 278.047607,20.753525 281.422394,23.070606 
	C288.911621,28.212549 296.334106,33.509079 303.348297,39.272579 
	C315.307495,49.099384 324.643280,61.191338 330.873993,75.341881 
	C342.432251,101.591873 342.431488,128.701019 335.431335,156.039368 
	C333.015930,165.472305 329.854980,174.714340 327.034576,184.043564 
	C327.034576,184.043564 326.995026,184.015793 326.738403,184.207596 
	C326.326202,185.284653 326.170624,186.169907 326.015076,187.055176 
	C326.015076,187.055176 325.999969,186.996964 325.850220,187.064362 
	C325.619324,187.227081 325.452881,187.382904 325.470703,187.408081 
	C325.606049,187.598999 325.777527,187.764328 325.937744,187.937637 
z"/>
<path fill="#A4E869" opacity="1.000000" stroke="none" 
	d="
M327.384766,184.031982 
	C329.854980,174.714340 333.015930,165.472305 335.431335,156.039368 
	C342.431488,128.701019 342.432251,101.591873 330.873993,75.341881 
	C324.643280,61.191338 315.307495,49.099384 303.348297,39.272579 
	C296.334106,33.509079 288.911621,28.212549 281.422394,23.070606 
	C278.047607,20.753525 274.061432,19.326876 270.156311,17.205717 
	C280.847076,6.804404 292.981567,1.547063 308.564087,2.694985 
	C335.104797,4.650163 365.563782,31.970749 368.844543,62.513088 
	C369.574188,69.305710 368.987610,76.239716 369.022766,83.538864 
	C368.919434,84.784706 369.086975,85.836845 368.638367,86.380539 
	C361.602509,94.906898 362.055237,105.870728 359.107758,115.701569 
	C351.969666,139.509705 341.552246,161.799942 328.858948,183.089096 
	C328.624115,183.482925 328.115692,183.713593 327.384766,184.031982 
z"/>
<path fill="#DD7017" opacity="1.000000" stroke="none" 
	d="
M206.639313,181.057373 
	C211.959351,183.579956 213.497421,187.924423 214.443573,193.384171 
	C217.059982,208.482254 223.451416,221.754532 235.361450,232.013245 
	C237.375031,233.747635 239.718216,236.589005 239.665604,238.867096 
	C239.594925,241.926743 238.132126,245.965286 235.840042,247.724426 
	C232.444794,250.330246 227.952209,249.783051 224.309479,246.780014 
	C209.341248,234.440292 200.734970,218.411041 196.941025,199.591080 
	C196.614487,197.971313 196.300201,196.349075 195.961945,194.305847 
	C199.404449,189.654037 202.865265,185.424408 206.639313,181.057373 
z"/>
<path fill="#DD7017" opacity="1.000000" stroke="none" 
	d="
M134.639511,276.042175 
	C139.338013,277.998840 141.310379,281.478729 142.159332,286.301605 
	C143.895248,296.163239 147.984482,305.007294 156.018387,311.441315 
	C159.666519,314.362976 159.934830,318.410095 158.590576,321.781006 
	C157.610138,324.239594 154.285858,326.920013 151.704193,327.269623 
	C148.928787,327.645508 145.236816,326.101318 142.924500,324.202087 
	C133.366531,316.351776 127.803688,305.923767 124.994644,293.959686 
	C124.806931,293.160156 124.497871,292.389099 124.091019,291.249786 
	C127.399529,285.991425 130.862259,281.088043 134.639511,276.042175 
z"/>
<path fill="#A4E869" opacity="1.000000" stroke="none" 
	d="
M325.988708,200.920410 
	C328.713989,199.938614 331.439240,198.956802 334.514099,197.901154 
	C345.012207,194.809113 355.025299,191.183395 365.334290,188.885040 
	C398.103790,181.579163 429.934967,183.458069 459.785400,200.436783 
	C472.789276,207.833282 483.526855,217.931412 493.154175,229.279205 
	C495.832733,232.436478 498.568787,235.544907 501.571960,238.822281 
	C503.602600,243.886902 505.688782,248.712845 507.015594,253.739258 
	C512.336548,273.896790 493.439026,293.897308 470.919159,289.587799 
	C462.131134,287.906067 454.371979,284.388062 447.569611,278.787964 
	C444.933289,276.617584 442.725403,273.848450 440.623718,271.119934 
	C428.433044,255.293488 411.951477,245.167191 394.540283,236.284088 
	C390.753601,234.352142 386.782013,232.782669 382.526672,231.052399 
	C381.581421,226.964172 379.047729,225.011383 375.198303,223.813019 
	C358.597748,218.645172 342.065247,213.258743 325.509125,207.948334 
	C323.165283,207.196533 320.827759,206.425064 318.499268,205.274292 
	C318.684845,204.586853 318.858459,204.287827 319.010437,203.987396 
	C318.988831,203.985962 318.984741,204.029114 319.341644,204.015808 
	C321.795258,202.975143 323.891968,201.947769 325.988708,200.920410 
z"/>
<path fill="#DD7017" opacity="1.000000" stroke="none" 
	d="
M275.400208,351.034454 
	C267.265015,348.404419 259.336426,346.084564 251.734131,342.968628 
	C240.306580,338.284851 230.792938,330.887939 223.510452,320.815399 
	C221.012543,317.360474 221.681534,311.587067 224.709106,308.878143 
	C228.597092,305.399384 233.527283,305.255585 237.245392,308.819244 
	C240.227448,311.677429 242.636795,315.177460 245.790421,317.804260 
	C256.015778,326.321320 268.149292,330.654785 281.104980,332.804565 
	C285.337952,333.506958 288.010620,335.777863 289.915649,339.783417 
	C285.288605,343.732300 280.520752,347.360291 275.400208,351.034454 
z"/>
<path fill="#DD7017" opacity="1.000000" stroke="none" 
	d="
M165.440628,426.911316 
	C149.481155,425.080780 135.785950,419.377808 125.955215,406.393311 
	C122.732773,402.137085 123.250854,396.912903 127.119011,393.398315 
	C130.833908,390.023010 136.078857,389.886292 139.452240,394.150604 
	C146.494247,403.052490 156.061768,406.715118 166.600571,408.986084 
	C172.811371,410.324463 174.889145,413.062469 175.052032,419.699707 
	C171.961960,422.334076 168.856628,424.548553 165.440628,426.911316 
z"/>
<path fill="#DD7017" opacity="1.000000" stroke="none" 
	d="
M307.235352,217.750458 
	C320.513153,233.264587 336.057953,245.033478 354.797272,252.474533 
	C360.286072,254.654037 362.496399,259.895447 360.466614,265.001160 
	C358.713074,269.411957 353.494843,271.508850 348.210052,269.511871 
	C333.612091,263.995728 320.762238,255.486023 309.029816,245.375275 
	C302.872955,240.069443 297.318390,234.039886 291.708801,228.131210 
	C286.500519,222.645264 288.765411,213.882599 295.805817,212.284454 
	C300.641174,211.186844 303.889618,214.380219 307.235352,217.750458 
z"/>
<path fill="#DD7017" opacity="1.000000" stroke="none" 
	d="
M44.059551,424.395874 
	C43.985519,414.478729 49.931225,410.663269 58.195641,415.131317 
	C64.160103,418.355865 69.986107,421.857697 75.723282,425.474731 
	C80.324501,428.375580 81.834702,433.961487 79.446999,437.894867 
	C76.801422,442.253021 70.862656,443.532257 65.969048,440.552887 
	C59.631012,436.694061 53.363045,432.713043 47.186092,428.602539 
	C45.888615,427.739105 45.117264,426.085052 44.059551,424.395874 
z"/>
<path fill="#659C35" opacity="1.000000" stroke="none" 
	d="
M316.247131,203.239349 
	C316.987457,202.046951 317.783630,201.147034 318.870941,200.579819 
	C319.102997,201.951401 319.043854,202.990250 318.984741,204.029114 
	C318.984741,204.029114 318.988831,203.985962 318.748657,203.873413 
	C318.330536,203.828583 318.152618,203.896301 317.974731,203.964005 
	C317.417480,203.819946 316.860229,203.675888 316.247131,203.239349 
z"/>
<path fill="#ED6A1D" opacity="1.000000" stroke="none" 
	d="
M317.989807,204.248413 
	C318.152618,203.896301 318.330536,203.828583 318.770264,203.874847 
	C318.858459,204.287827 318.684845,204.586853 318.267334,204.993988 
	C318.017273,204.912354 318.011078,204.722595 317.989807,204.248413 
z"/>
<path fill="#ED6A1D" opacity="1.000000" stroke="none" 
	d="
M319.341644,204.015808 
	C319.043854,202.990250 319.102997,201.951401 319.174438,200.515228 
	C319.186798,200.117935 319.127655,200.046844 319.355713,200.010986 
	C319.739532,199.650040 319.895325,199.324951 320.051147,198.999847 
	C320.051147,198.999863 320.005127,199.008087 320.015045,199.030014 
	C322.400391,199.173584 324.775818,199.295212 327.151245,199.416840 
	C326.862915,199.750580 326.574585,200.084305 326.137512,200.669220 
	C323.891968,201.947769 321.795258,202.975143 319.341644,204.015808 
z"/>
<path fill="#A4E869" opacity="1.000000" stroke="none" 
	d="
M326.286713,186.846069 
	C326.170624,186.169907 326.326202,185.284653 326.762329,184.204483 
	C326.881378,184.885361 326.719849,185.761169 326.286713,186.846069 
z"/>
<path fill="#A4E869" opacity="1.000000" stroke="none" 
	d="
M325.980042,187.704712 
	C325.777527,187.764328 325.606049,187.598999 325.470703,187.408081 
	C325.452881,187.382904 325.619324,187.227081 325.880249,187.065826 
	C326.060059,186.999863 326.022369,187.471802 325.980042,187.704712 
z"/>
<path fill="#659C35" opacity="1.000000" stroke="none" 
	d="
M319.807312,199.094498 
	C319.895325,199.324951 319.739532,199.650040 319.310608,200.021164 
	C319.212830,199.774521 319.388184,199.481842 319.807312,199.094498 
z"/>
</svg>